<svg width="1167px" height="340px" viewBox="0 0 1167 340" version="1.1" xmlns="http://www.w3.org/2000/svg" xmlns:xlink="http://www.w3.org/1999/xlink" xmlns:sketch="http://www.bohemiancoding.com/sketch/ns">
                <g id="Page-1" stroke="none" stroke-width="1" fill="none" fill-rule="evenodd" sketch:type="MSPage">
                    <g id="vecteezy_hand-drawn-arrow-icon-set-isolated-on-white-background_" sketch:type="MSLayerGroup" transform="translate(-1837.000000, -212.000000)" fill="#000000">
                        <path d="M2836.69765,410.999478 C2742.52165,461.773478 2643.97165,501.058478 2539.31465,524.257478 C2378.37765,559.921478 2222.07265,543.593478 2070.75265,479.933478 C2009.84965,454.308478 1955.72865,417.058478 1908.65065,370.601478 C1874.67065,337.070478 1849.99065,297.355478 1839.29565,250.074478 C1837.28365,241.175478 1835.89665,232.050478 1838.18565,222.906478 C1839.32665,218.308478 1841.18165,214.054478 1846.38165,212.890478 C1851.72865,211.702478 1854.83065,215.081478 1857.63165,218.976478 C1866.36965,231.140478 1875.73665,242.898478 1883.86965,255.452478 C1922.49065,315.058478 1975.64265,357.984478 2037.79965,390.734478 C2117.42865,432.691478 2202.66665,454.476478 2291.93165,462.679478 C2408.21765,473.367478 2520.16265,454.105478 2629.63165,415.933478 C2685.85365,396.327478 2740.90865,374.179478 2792.74865,344.620478 C2795.39265,343.117478 2797.93165,341.433478 2800.47165,339.765478 C2800.77565,339.562478 2800.76365,338.882478 2800.94765,338.273478 C2798.17865,336.367478 2795.09265,337.452478 2792.20965,337.507478 C2739.86965,338.507478 2687.56465,338.601478 2635.52565,331.652478 C2621.87765,329.831478 2608.59265,326.534478 2595.88165,321.136478 C2590.00665,318.640478 2584.44365,315.585478 2579.85765,311.058478 C2569.86565,301.163478 2572.43165,290.140478 2585.97165,286.429478 C2607.84965,280.437478 2630.24865,277.324478 2652.90065,276.523478 C2698.58065,274.909478 2744.28765,273.761478 2789.96765,272.105478 C2845.65865,270.077478 2900.80665,263.214478 2955.49865,252.562478 C2958.23265,252.031478 2960.99865,251.515478 2963.76765,251.234478 C2988.87765,248.675478 3007.05365,267.976478 3003.04965,292.929478 C3001.69765,301.324478 2998.14265,308.917478 2994.26765,316.367478 C2986.52165,331.261478 2977.58465,345.452478 2968.32665,359.417478 C2948.39665,389.476478 2928.34965,419.456478 2908.20565,449.370478 C2897.52965,465.206478 2885.33465,479.827478 2871.38565,492.921478 C2861.33865,502.347478 2853.01065,513.249478 2844.38565,523.917478 C2838.96365,530.632478 2833.55365,537.370478 2827.84265,543.843478 C2821.19365,551.367478 2813.55365,553.538478 2806.15465,550.523478 C2798.78365,547.519478 2794.06465,539.492478 2794.36965,530.027478 C2794.63565,521.488478 2797.09265,513.351478 2801.23265,506.050478 C2819.16265,474.441478 2828.72465,438.730478 2849.25265,408.421478 C2849.74065,407.695478 2849.77165,406.659478 2850.26765,404.863478 C2844.67865,405.917478 2840.79965,408.796478 2836.69765,410.999478 Z" id="Fill-11" sketch:type="MSShapeGroup"></path>
                    </g>
                </g>
            </svg>