<svg width="64" height="64" viewBox="0 0 64 64" fill="none" xmlns="http://www.w3.org/2000/svg">
<path d="M44 34C44 39.5228 39.5228 44 34 44C28.4772 44 24 39.5228 24 34C24 28.4772 28.4772 24 34 24C39.5228 24 44 28.4772 44 34Z" fill="#65686E"/>
<path d="M58 32C58 46.3594 46.3594 58 32 58C24.7615 58 18.2139 55.042 13.5 50.2688M6 32C6 17.6406 17.6406 6 32 6C39.2385 6 45.7861 8.958 50.5 13.7312M43.5 15H51.5V7M20.5 49H12.5V57M42 32C42 37.5228 37.5228 42 32 42C26.4772 42 22 37.5228 22 32C22 26.4772 26.4772 22 32 22C37.5228 22 42 26.4772 42 32Z" stroke="#B6B8BA" stroke-width="1.5" stroke-linecap="round" stroke-linejoin="round"/>
</svg>
