<svg width="64" height="64" viewBox="0 0 64 64" fill="none" xmlns="http://www.w3.org/2000/svg">
<path d="M54 50C54 55.5228 49.5228 60 44 60C38.4772 60 34 55.5228 34 50C34 44.4772 38.4772 40 44 40C49.5228 40 54 44.4772 54 50Z" fill="#65686E"/>
<path d="M55 61L49.1106 55.1107M46 34V16H32.1433C31.5119 16 31 15.4881 31 14.8567C31 14.4486 31.2228 14.0782 31.5516 13.8364C33.0364 12.7442 34 10.9846 34 9C34 5.68629 31.3137 3 28 3C24.6863 3 22 5.68629 22 9C22 10.9846 22.9636 12.7442 24.4484 13.8364C24.7772 14.0782 25 14.4486 25 14.8567C25 15.4881 24.4881 16 23.8567 16H10V29.8567C10 30.4881 10.5119 31 11.1433 31C11.5514 31 11.9218 30.7772 12.1636 30.4484C13.2558 28.9636 15.0154 28 17 28C20.3137 28 23 30.6863 23 34C23 37.3137 20.3137 40 17 40C15.0154 40 13.2558 39.0364 12.1636 37.5516C11.9218 37.2228 11.5514 37 11.1433 37C10.5119 37 10 37.5119 10 38.1433V52H28M52 48C52 53.5228 47.5228 58 42 58C36.4772 58 32 53.5228 32 48C32 42.4772 36.4772 38 42 38C47.5228 38 52 42.4772 52 48Z" stroke="#B6B8BA" stroke-width="1.5" stroke-linecap="round" stroke-linejoin="round"/>
</svg>
