<svg id="OBJECTS" xmlns="http://www.w3.org/2000/svg" xmlns:xlink="http://www.w3.org/1999/xlink" viewBox="0 0 236.92 165.3"><defs><style>.cls-1{fill:url(#linear-gradient);}.cls-2{fill:url(#linear-gradient-2);}.cls-3{fill:url(#linear-gradient-3);}.cls-4{fill:url(#linear-gradient-4);}.cls-5{fill:url(#linear-gradient-5);}.cls-6{fill:url(#linear-gradient-6);}.cls-7{fill:url(#linear-gradient-7);}.cls-8{fill:url(#linear-gradient-8);}</style><linearGradient id="linear-gradient" x1="44.33" y1="90.84" x2="107.68" y2="27.5" gradientTransform="translate(67.99 -51.74) rotate(45)" gradientUnits="userSpaceOnUse"><stop offset="0" stop-color="#651fff"/><stop offset="1" stop-color="#18ffff"/></linearGradient><linearGradient id="linear-gradient-2" x1="12.69" y1="101.53" x2="105.2" y2="50.8" gradientUnits="userSpaceOnUse"><stop offset="0" stop-color="#18ffff"/><stop offset="1" stop-color="#651fff"/></linearGradient><linearGradient id="linear-gradient-3" x1="104.91" y1="162.92" x2="168.26" y2="99.58" gradientTransform="matrix(0.71, -0.71, -0.71, -0.71, 76.12, 340.55)" xlink:href="#linear-gradient-2"/><linearGradient id="linear-gradient-4" x1="13.04" y1="103.76" x2="117.5" y2="103.76" gradientTransform="matrix(1, 0, 0, 1, 0, 0)" xlink:href="#linear-gradient"/><linearGradient id="linear-gradient-5" x1="192.98" y1="-67.71" x2="256.33" y2="-131.05" gradientTransform="translate(412.24 239.74) rotate(-135)" xlink:href="#linear-gradient"/><linearGradient id="linear-gradient-6" x1="229.91" y1="94.53" x2="322.43" y2="43.8" gradientTransform="translate(480.22 188) rotate(180)" xlink:href="#linear-gradient-2"/><linearGradient id="linear-gradient-7" x1="263.46" y1="14.27" x2="326.81" y2="-49.07" gradientTransform="matrix(-0.71, 0.71, 0.71, 0.71, 404.11, -152.55)" xlink:href="#linear-gradient-2"/><linearGradient id="linear-gradient-8" x1="230.27" y1="96.76" x2="334.72" y2="96.76" gradientTransform="translate(480.22 188) rotate(180)" xlink:href="#linear-gradient"/></defs><path class="cls-1" d="M117.19,63.29l.31-.36c.21-.24.42-.47.62-.72s.23-.29.35-.44.35-.45.52-.67l.35-.49.46-.66c.11-.17.22-.35.34-.52l.4-.65.32-.55c.13-.22.25-.44.36-.65s.21-.39.3-.58l.33-.65.27-.59c.1-.22.19-.43.28-.65s.18-.41.26-.62l.24-.64c.08-.21.16-.43.23-.64s.14-.42.2-.63l.21-.67c.06-.2.11-.4.16-.61l.19-.7c0-.19.08-.37.11-.55s.12-.52.17-.78l.06-.35a29.4,29.4,0,0,0,.4-3.38s0-.11,0-.17c0-.33,0-.67,0-1,0-.1,0-.21,0-.31,0-.33,0-.65,0-1v-.35l-.06-1,0-.36c0-.32-.06-.64-.09-1,0-.12,0-.24,0-.36,0-.32-.09-.64-.14-1l-.06-.34c0-.32-.12-.65-.19-1L124,37.5l-.24-1c0-.09,0-.18-.08-.27-.09-.34-.19-.68-.29-1,0-.07-.05-.14-.07-.21-.11-.36-.23-.71-.36-1.07,0,0,0-.07,0-.11a28.92,28.92,0,0,0-4.52-8,27.94,27.94,0,0,0-2.19-2.46h0a29,29,0,0,0-41,0L35.1,63.43C46.81,55,55.05,54.15,65.31,58.85A57.36,57.36,0,0,1,77.73,66.6a29,29,0,0,0,38.46-2.26h0C116.53,64,116.86,63.65,117.19,63.29Z" transform="translate(-13.04 -14.85)"/><path class="cls-2" d="M77.73,66.6a57.36,57.36,0,0,0-12.42-7.75c-10.26-4.7-18.5-3.9-30.21,4.58L75.19,23.34a28.86,28.86,0,0,1,4.55-3.71,28.86,28.86,0,0,0-4.55,3.71L21.53,77a29,29,0,0,0,0,41h0a29,29,0,0,0,41,0l53.66-53.66A29,29,0,0,1,77.73,66.6Z" transform="translate(-13.04 -14.85)"/><path class="cls-3" d="M117.19,131.71l.31.36c.21.24.42.47.62.72s.23.29.35.44.35.45.52.67l.35.49.46.66c.11.17.22.35.34.52l.4.65.32.55c.13.22.25.44.36.65s.21.39.3.58l.33.65.27.59c.1.22.19.43.28.65s.18.41.26.62l.24.64c.08.21.16.43.23.64s.14.42.2.63l.21.67c.06.2.11.4.16.61l.19.7c0,.19.08.37.11.55s.12.52.17.78l.06.35a29.4,29.4,0,0,1,.4,3.38s0,.11,0,.17c0,.33,0,.67,0,1,0,.1,0,.21,0,.31,0,.33,0,.65,0,1v.35l-.06,1,0,.36c0,.32-.06.64-.09,1,0,.12,0,.24,0,.36,0,.32-.09.64-.14,1l-.06.34c0,.32-.12.65-.19,1l-.06.31-.24,1c0,.09,0,.18-.08.27-.09.34-.19.68-.29,1,0,.07-.05.14-.07.21-.11.36-.23.71-.36,1.07,0,0,0,.07,0,.11a28.92,28.92,0,0,1-4.52,8,27.94,27.94,0,0,1-2.19,2.46h0a29,29,0,0,1-41,0L35.1,131.57c11.71,8.48,19.95,9.28,30.21,4.58a57.36,57.36,0,0,0,12.42-7.75,29,29,0,0,1,38.46,2.26h0C116.53,131,116.86,131.35,117.19,131.71Z" transform="translate(-13.04 -14.85)"/><path class="cls-4" d="M65.31,136.15a57.36,57.36,0,0,0,12.42-7.75,29,29,0,0,1,38.46,2.26h0c.34.34.67.69,1,1.05l.31.36c-.42-.48-.85-.95-1.31-1.41L62.53,77a29,29,0,0,0-41,0h0a29,29,0,0,0,0,41L35.1,131.57C46.81,140.05,55.05,140.85,65.31,136.15Z" transform="translate(-13.04 -14.85)"/><path class="cls-5" d="M145.81,131.71l-.31.36c-.21.24-.42.47-.62.72s-.23.29-.35.44-.35.45-.52.67l-.35.49-.46.66c-.11.17-.22.35-.34.52l-.4.65-.32.55c-.13.22-.25.44-.36.65s-.21.39-.3.58l-.33.65-.27.59c-.1.22-.19.43-.28.65s-.18.41-.26.62l-.24.64c-.08.21-.16.43-.23.64s-.14.42-.2.63l-.21.67c-.06.2-.11.4-.16.61l-.19.7c0,.19-.08.37-.11.55s-.12.52-.17.78l-.06.35a29.4,29.4,0,0,0-.4,3.38s0,.11,0,.17c0,.33,0,.67,0,1,0,.1,0,.21,0,.31,0,.33,0,.65,0,1v.35l.06,1,0,.36c0,.32.06.64.09,1,0,.12,0,.24,0,.36,0,.32.09.64.14,1l.06.34c0,.32.12.65.19,1l.06.31.24,1c0,.09.05.18.08.27.09.34.19.68.29,1,0,.07.05.14.07.21.11.36.23.71.36,1.07,0,0,0,.07,0,.11a28.92,28.92,0,0,0,4.52,8,27.94,27.94,0,0,0,2.19,2.46h0a29,29,0,0,0,41,0l40.09-40.09c-11.71,8.48-20,9.28-30.21,4.58a57.36,57.36,0,0,1-12.42-7.75,29,29,0,0,0-38.46,2.26h0C146.47,131,146.14,131.35,145.81,131.71Z" transform="translate(-13.04 -14.85)"/><path class="cls-6" d="M185.27,128.4a57.36,57.36,0,0,0,12.42,7.75c10.26,4.7,18.5,3.9,30.21-4.58l-40.09,40.09a28.86,28.86,0,0,1-4.55,3.71,28.86,28.86,0,0,0,4.55-3.71L241.47,118a29,29,0,0,0,0-41h0a29,29,0,0,0-41,0l-53.66,53.66A29,29,0,0,1,185.27,128.4Z" transform="translate(-13.04 -14.85)"/><path class="cls-7" d="M145.81,63.29l-.31-.36c-.21-.24-.42-.47-.62-.72s-.23-.29-.35-.44-.35-.45-.52-.67l-.35-.49L143.2,60c-.11-.17-.22-.35-.34-.52l-.4-.65-.32-.55c-.13-.22-.25-.44-.36-.65s-.21-.39-.3-.58l-.33-.65-.27-.59c-.1-.22-.19-.43-.28-.65s-.18-.41-.26-.62l-.24-.64c-.08-.21-.16-.43-.23-.64s-.14-.42-.2-.63l-.21-.67c-.06-.2-.11-.4-.16-.61l-.19-.7c0-.19-.08-.37-.11-.55s-.12-.52-.17-.78l-.06-.35a29.4,29.4,0,0,1-.4-3.38s0-.11,0-.17c0-.33,0-.67,0-1,0-.1,0-.21,0-.31,0-.33,0-.65,0-1v-.35l.06-1,0-.36c0-.32.06-.64.09-1,0-.12,0-.24,0-.36,0-.32.09-.64.14-1l.06-.34c0-.32.12-.65.19-1l.06-.31.24-1c0-.09.05-.18.08-.27.09-.34.19-.68.29-1,0-.07.05-.14.07-.21.11-.36.23-.71.36-1.07,0,0,0-.07,0-.11a28.92,28.92,0,0,1,4.52-8,27.94,27.94,0,0,1,2.19-2.46h0a29,29,0,0,1,41,0L227.9,63.43c-11.71-8.48-20-9.28-30.21-4.58a57.36,57.36,0,0,0-12.42,7.75,29,29,0,0,1-38.46-2.26h0C146.47,64,146.14,63.65,145.81,63.29Z" transform="translate(-13.04 -14.85)"/><path class="cls-8" d="M197.69,58.85a57.36,57.36,0,0,0-12.42,7.75,29,29,0,0,1-38.46-2.26h0c-.34-.34-.67-.69-1-1.05l-.31-.36c.42.48.85,1,1.31,1.41L200.47,118a29,29,0,0,0,41,0h0a29,29,0,0,0,0-41L227.9,63.43C216.19,55,208,54.15,197.69,58.85Z" transform="translate(-13.04 -14.85)"/></svg>